<svg width="794" height="503" viewBox="0 0 794 503" fill="none" xmlns="http://www.w3.org/2000/svg">
<path d="M792.486 413.468H1.27903C0.939809 413.468 0.614482 413.333 0.374618 413.093C0.134753 412.854 0 412.528 0 412.189C0.00654881 411.852 0.143409 411.53 0.381868 411.292C0.620328 411.053 0.941859 410.917 1.27903 410.91H792.486C792.823 410.917 793.145 411.053 793.383 411.292C793.622 411.53 793.758 411.852 793.765 412.189C793.765 412.528 793.63 412.854 793.39 413.093C793.15 413.333 792.825 413.468 792.486 413.468Z" fill="#D1D3D4"/>
<path d="M64.1565 137.94C25.9647 165.746 20.8486 223.712 19.8765 267.25C18.9045 308.179 28.0368 347.266 36.5807 387.197C44.9199 426.258 76.6142 447.567 114.448 456.264C170.725 469.285 232.119 470.794 289.24 464.501C346.361 458.209 347.845 401.931 342.115 355.861C340.529 343.07 331.55 335.166 321.855 328.259C309.86 320.248 299.395 310.155 290.954 298.458C263.864 259.243 262.304 212.635 244.244 169.967C229.97 136.175 198.199 112.641 161.337 113.817C124.475 114.994 89.558 119.471 64.1565 137.94Z" fill="white"/>
<path d="M224.367 469.464C187.304 469.669 150.336 465.687 114.166 457.594C58.6306 444.804 40.6475 412.342 35.3267 387.453L33.5361 379.062C25.3759 341.203 17.6761 305.467 18.597 267.224C20.7202 179.048 43.666 151.267 63.4142 136.891C90.2994 117.347 127.98 113.613 161.311 112.538C197.277 111.438 230.379 133.719 245.42 169.455C252.031 186.098 257.434 203.196 261.587 220.616C268.494 246.836 275.656 273.926 292.028 297.767C299.267 308.306 308.399 317.132 322.724 327.261C332.547 334.245 341.859 342.61 343.496 355.733C348.765 397.915 344.442 427.128 330.271 445.06C320.959 456.853 307.248 463.836 289.495 465.806C267.869 468.211 246.127 469.432 224.367 469.464ZM64.9235 139.014C28.2409 165.695 22.2551 221.614 21.1551 267.326C20.2598 305.262 27.9084 340.87 36.0174 378.576L37.8336 386.967C42.9497 411.14 60.5236 442.553 114.754 455.139C167.246 467.315 227.539 470.155 289.086 463.35C306.123 461.483 319.271 454.806 328.147 443.576C341.859 426.207 346.054 397.531 340.938 356.142C339.403 343.94 330.552 336.087 321.215 329.436C306.762 319.204 297.425 310.122 290.007 299.327C273.379 275.128 266.191 247.783 259.31 221.358C255.169 204.047 249.801 187.052 243.246 170.504C228.562 135.74 196.484 113.945 161.567 115.147C128.645 116.222 91.4249 119.88 65.1025 139.014H64.9235Z" fill="#231F20"/>
<path d="M164.432 354.095C157.594 354.091 150.762 353.707 143.967 352.944C130.931 351.466 118.076 348.681 105.596 344.631C88.6107 339.131 77.2018 332.838 68.6323 324.294C55.6118 311.273 50.7259 293.597 48.7562 281.242C44.4075 252.489 48.7562 220.718 51.9026 204.347C53.9566 193.123 58.4421 182.484 65.0442 173.177C71.6463 163.871 80.2051 156.122 90.12 150.474C103.882 142.467 120.305 137.3 140.284 134.691C161.26 131.954 176.352 134.205 187.787 141.751C206.46 154.081 211.781 177.794 215.618 201.021L222.141 240.441C223.727 250.238 225.927 263.642 233.627 269.961C236.343 272.017 239.267 273.783 242.35 275.23C247.747 277.942 253.298 280.781 256.445 286.946C260.308 294.621 261.945 307.411 257.98 315.827C253.58 325.087 244.601 331.175 238.257 334.936C215.819 347.843 190.315 354.462 164.432 354.095ZM156.425 136.123C151.223 136.162 146.028 136.53 140.872 137.223C121.226 139.781 105.059 144.898 91.6804 152.572C82.0787 158.029 73.7904 165.525 67.3995 174.533C61.0085 183.54 56.6705 193.839 54.6909 204.705C51.5445 221.025 47.1958 252.464 51.5445 280.858C53.3607 292.932 58.1699 309.943 70.7043 322.478C78.9669 330.74 90.0433 336.828 106.517 342.2C118.784 346.202 131.426 348.945 144.248 350.386C178.91 354.3 211.014 348.186 237.08 332.736C243.143 329.129 251.687 323.348 255.78 314.829C259.412 307.155 257.877 295.286 254.296 288.2C251.533 282.777 246.622 280.27 241.327 277.609C238.078 276.089 235 274.228 232.143 272.058C223.676 265.126 221.399 251.134 219.737 240.953L213.214 201.533C209.479 178.868 204.312 155.744 186.508 144.002C178.706 138.681 168.883 136.123 156.425 136.123Z" fill="#D1D3D4"/>
<path d="M70.2445 314.113C69.9884 314.114 69.7378 314.039 69.524 313.898C69.3102 313.757 69.1426 313.556 69.0422 313.32C68.9799 313.164 68.949 312.997 68.9513 312.829C68.9536 312.661 68.989 312.495 69.0555 312.34C69.1221 312.186 69.2184 312.046 69.339 311.929C69.4596 311.812 69.6022 311.72 69.7585 311.658C86.1812 304.853 97.1297 306.541 97.5901 306.541C97.7581 306.567 97.9194 306.625 98.065 306.712C98.2105 306.8 98.3374 306.915 98.4383 307.052C98.5393 307.188 98.6124 307.343 98.6534 307.508C98.6944 307.673 98.7025 307.844 98.6773 308.012C98.6521 308.18 98.5941 308.342 98.5065 308.487C98.419 308.633 98.3036 308.76 98.167 308.861C98.0304 308.961 97.8753 309.035 97.7105 309.076C97.5457 309.117 97.3744 309.125 97.2064 309.099C97.2064 309.099 86.437 307.565 70.7305 314.062C70.5744 314.115 70.4083 314.133 70.2445 314.113Z" fill="#D1D3D4"/>
<path d="M729.609 137.94C767.852 165.746 772.84 223.712 773.889 267.25C774.861 308.179 765.729 347.266 757.185 387.197C748.845 426.258 717.151 447.567 679.317 456.264C623.04 469.285 561.647 470.794 504.525 464.501C447.404 458.209 445.92 401.931 451.65 355.861C453.236 343.07 462.215 335.166 471.91 328.259C483.905 320.248 494.371 310.155 502.811 298.458C529.901 259.243 531.462 212.635 549.522 169.967C563.796 136.175 595.567 112.641 632.428 113.817C669.29 114.994 704.207 119.471 729.609 137.94Z" fill="white"/>
<path d="M569.398 469.464C547.656 469.447 525.931 468.243 504.321 465.857C486.568 463.887 472.857 456.904 463.545 445.111C449.374 427.205 445.051 397.966 450.32 355.784C451.957 342.584 461.269 334.296 471.092 327.313C485.289 317.08 494.421 308.357 501.788 297.818C518.16 273.977 525.322 246.887 532.229 220.667C536.382 203.247 541.785 186.149 548.396 169.506C563.514 133.693 596.615 111.515 632.505 112.589C665.76 113.664 703.517 117.399 730.402 136.942C768.005 164.288 774.093 220.949 775.219 267.403C776.14 305.646 768.44 341.382 760.28 379.241L758.489 387.632C753.168 412.522 735.185 444.881 679.65 457.774C643.457 465.81 606.471 469.732 569.398 469.464ZM629.665 115.045C595.771 115.045 564.921 136.558 550.596 170.453C544.041 187.001 538.672 203.996 534.531 221.307C527.573 247.731 520.385 275.026 503.835 299.276C496.416 310.071 487.079 319.076 472.626 329.385C463.289 336.036 454.439 343.889 452.904 356.091C447.788 397.557 451.881 426.156 465.694 443.525C474.57 454.755 487.719 461.432 504.756 463.299C566.302 470.103 626.596 467.264 679.087 455.088C733.318 442.502 750.713 411.089 756.008 386.915L757.824 378.525C765.933 340.819 773.582 305.211 772.686 267.275C770.589 180.301 748.206 152.981 728.918 138.963C702.596 119.829 665.376 116.171 632.454 115.096L629.665 115.045Z" fill="#231F20"/>
<path d="M629.333 354.095C603.38 354.499 577.801 347.879 555.303 334.936C548.959 331.175 539.954 325.087 535.58 315.827C531.615 307.436 533.252 294.569 537.115 286.946C540.261 280.781 545.812 277.942 551.21 275.23C554.293 273.783 557.217 272.017 559.933 269.961C567.607 263.643 569.832 250.238 571.418 240.441L577.941 201.021C581.779 177.794 587.099 154.081 605.773 141.751C617.208 134.205 632.3 131.954 653.276 134.691C673.255 137.249 689.677 142.365 703.44 150.474C713.355 156.122 721.913 163.871 728.516 173.177C735.118 182.484 739.603 193.123 741.657 204.347C744.701 220.718 749.152 252.489 744.804 281.242C742.936 293.7 737.948 311.273 724.927 324.294C716.358 332.838 704.949 339.131 687.964 344.631C675.484 348.681 662.629 351.466 649.593 352.944C642.866 353.699 636.102 354.083 629.333 354.095ZM637.34 136.123C624.831 136.123 615.008 138.681 607.129 143.798C589.223 155.539 584.106 178.664 580.423 201.328L573.9 240.748C572.237 250.98 569.96 264.922 561.493 271.854C558.637 274.023 555.558 275.884 552.31 277.405C547.194 279.963 542.078 282.521 539.34 287.995C535.759 295.081 534.224 306.95 537.857 314.625C541.95 323.245 550.494 329.026 556.556 332.531C582.623 347.879 614.701 354.095 649.388 350.182C662.21 348.74 674.853 345.998 687.119 341.996C703.721 336.624 714.798 330.536 722.932 322.273C735.467 309.739 740.276 292.728 742.092 280.654C746.39 252.259 742.092 220.821 738.946 204.628C736.966 193.763 732.628 183.463 726.237 174.456C719.846 165.449 711.558 157.952 701.956 152.495C688.501 144.667 672.411 139.705 652.765 137.147C647.649 136.483 642.498 136.141 637.34 136.123Z" fill="#D1D3D4"/>
<path d="M723.52 314.113C723.36 314.149 723.194 314.149 723.034 314.113C707.328 307.616 696.686 309.15 696.558 309.15C696.39 309.176 696.219 309.167 696.054 309.126C695.89 309.085 695.734 309.012 695.598 308.911C695.461 308.81 695.346 308.684 695.258 308.538C695.171 308.393 695.113 308.231 695.088 308.063C695.062 307.895 695.07 307.724 695.111 307.559C695.152 307.394 695.226 307.239 695.327 307.103C695.427 306.966 695.554 306.851 695.7 306.763C695.845 306.676 696.007 306.618 696.175 306.592C696.635 306.592 707.584 304.93 724.006 311.708C724.163 311.77 724.305 311.863 724.426 311.98C724.546 312.097 724.643 312.237 724.709 312.391C724.776 312.546 724.811 312.712 724.814 312.88C724.816 313.048 724.785 313.215 724.723 313.371C724.615 313.597 724.444 313.787 724.231 313.919C724.017 314.051 723.771 314.118 723.52 314.113Z" fill="#D1D3D4"/>
<path d="M537.039 164.902L457.739 121.415C457.739 121.415 453.16 108.317 448.249 104.301C443.337 100.285 446.381 114.534 446.381 114.534C446.381 114.534 419.266 97.2155 416.478 101.897C413.689 106.578 409.059 125.661 418.32 133.054C426.48 139.526 441.675 141.163 441.675 141.163C484.036 175.313 543.818 213.044 543.818 213.044" fill="white"/>
<path d="M543.817 214.272C543.581 214.267 543.35 214.196 543.152 214.068C542.538 213.684 483.063 176.08 441.137 142.442C438.578 142.135 425.251 140.242 417.526 134.103C407.831 126.429 412.128 106.68 415.377 101.283C415.58 100.947 415.851 100.658 416.173 100.433C416.494 100.208 416.859 100.054 417.244 99.9783C422.36 98.7504 438.195 108.036 444.59 111.95C444.002 108.241 443.746 103.892 445.613 102.741C446.304 102.332 447.429 102.101 449.041 103.406C453.722 107.166 457.815 118.089 458.71 120.519L537.652 164.006C537.951 164.169 538.172 164.444 538.268 164.77C538.364 165.096 538.326 165.447 538.164 165.746C538.001 166.044 537.726 166.266 537.4 166.362C537.074 166.458 536.723 166.42 536.424 166.258L457.124 122.771C456.984 122.703 456.859 122.606 456.758 122.487C456.656 122.368 456.581 122.23 456.536 122.08C456.536 122.08 452.111 109.29 447.506 105.657L446.994 105.299C446.648 108.403 446.891 111.545 447.711 114.559C447.771 114.807 447.754 115.066 447.662 115.304C447.571 115.542 447.409 115.746 447.199 115.889C446.985 116.026 446.737 116.099 446.483 116.099C446.229 116.099 445.981 116.026 445.767 115.889C437.044 110.313 421.721 101.794 417.909 102.715C417.756 102.715 417.654 102.715 417.654 102.715C414.789 107.473 410.798 125.533 419.188 132.21C426.863 138.4 441.725 140.063 441.878 140.063C442.121 140.096 442.351 140.193 442.543 140.344C484.368 174.06 543.996 211.765 544.584 212.123C544.868 212.307 545.069 212.594 545.145 212.923C545.222 213.253 545.167 213.599 544.994 213.889C544.843 214.043 544.658 214.159 544.453 214.226C544.248 214.292 544.029 214.308 543.817 214.272Z" fill="#231F20"/>
<path d="M517.392 411.217C517.392 411.217 523.148 476.908 520.795 481.154C518.441 485.401 462.087 493.945 461.064 487.933C460.041 481.922 488.64 470.027 488.64 470.027L482.347 416.308" fill="white"/>
<path d="M469.557 491.233C467.709 491.273 465.86 491.153 464.032 490.875C462.369 490.593 460.118 490.005 459.785 488.163C458.737 481.896 479.482 472.585 487.259 469.336L481.068 416.589C481.048 416.421 481.061 416.251 481.107 416.088C481.153 415.925 481.23 415.772 481.335 415.639C481.439 415.506 481.569 415.395 481.716 415.312C481.864 415.229 482.026 415.176 482.194 415.156C482.362 415.136 482.532 415.149 482.695 415.195C482.858 415.241 483.01 415.318 483.143 415.422C483.276 415.527 483.388 415.657 483.47 415.804C483.553 415.952 483.606 416.114 483.627 416.282L489.919 470.001C489.951 470.279 489.89 470.56 489.747 470.8C489.604 471.04 489.386 471.227 489.126 471.331C475.824 476.805 461.781 484.633 462.318 487.728C462.318 487.728 463.06 488.547 468.534 488.7C484.957 489.238 517.572 483.022 519.695 480.489C521.23 477.266 518.314 436.363 516.114 411.422C516.099 411.254 516.117 411.084 516.167 410.923C516.217 410.762 516.299 410.613 516.407 410.483C516.515 410.354 516.648 410.247 516.797 410.169C516.946 410.091 517.11 410.043 517.278 410.027C517.446 410.012 517.615 410.03 517.776 410.081C517.937 410.131 518.086 410.213 518.216 410.321C518.345 410.429 518.452 410.561 518.53 410.711C518.609 410.86 518.657 411.023 518.672 411.191C519.644 422.216 524.351 477.496 521.921 481.845C519.49 486.194 485.34 491.233 469.557 491.233Z" fill="#231F20"/>
<path d="M600.734 428.458C600.734 428.458 608.638 486.5 604.545 488.163C600.452 489.826 544.815 492.461 545.71 487.575C546.605 482.689 574.053 473.378 574.053 473.378L564.128 416.793" fill="white"/>
<path d="M567.709 491.719C556.889 491.719 547.424 491.08 545.224 489.315C544.926 489.094 544.695 488.796 544.555 488.454C544.415 488.111 544.372 487.736 544.431 487.37C545.3 482.254 564.895 475.143 572.569 472.534L562.798 416.998C562.746 416.666 562.827 416.327 563.023 416.054C563.219 415.781 563.515 415.597 563.846 415.54C564.011 415.507 564.181 415.507 564.346 415.541C564.511 415.575 564.667 415.642 564.805 415.737C564.944 415.833 565.061 415.955 565.152 416.097C565.242 416.239 565.303 416.398 565.33 416.563L575.281 473.148C575.334 473.454 575.275 473.77 575.116 474.038C574.956 474.305 574.706 474.506 574.411 474.606C562.056 478.775 548.498 484.838 547.04 487.396C548.575 488.266 555.891 489.366 575.179 488.931C584.761 488.893 594.331 488.235 603.829 486.961C605.594 483.738 602.985 454.934 599.378 428.561C599.334 428.222 599.424 427.88 599.63 427.607C599.836 427.334 600.14 427.153 600.478 427.103C600.645 427.077 600.815 427.086 600.978 427.128C601.141 427.171 601.294 427.245 601.428 427.348C601.562 427.451 601.673 427.579 601.756 427.726C601.839 427.873 601.892 428.035 601.91 428.203C605.594 455.139 609.098 487.575 604.954 489.263C602.55 490.363 583.62 491.719 567.709 491.719Z" fill="#231F20"/>
<path d="M539.443 312.092C538.087 316.748 526.218 438.716 526.218 438.716H478.357C478.357 438.716 456.332 316.236 463.571 286C468.534 265.177 491.147 254.996 514.169 261.75C548.422 260.394 583.621 256.02 583.621 256.02L539.443 312.092Z" fill="#231F20"/>
<path d="M526.217 439.995H478.356C478.056 439.999 477.765 439.895 477.535 439.703C477.305 439.511 477.152 439.242 477.103 438.946C476.207 433.83 455.103 315.853 462.317 285.693C463.406 281.132 465.418 276.842 468.229 273.089C471.041 269.336 474.592 266.2 478.663 263.873C484.076 260.948 490.021 259.138 496.146 258.549C502.271 257.96 508.451 258.605 514.322 260.445C548.063 259.115 583.109 254.792 583.39 254.766C583.643 254.73 583.901 254.771 584.13 254.886C584.358 255 584.546 255.181 584.669 255.406C584.792 255.626 584.845 255.878 584.822 256.129C584.799 256.38 584.701 256.618 584.541 256.813L540.543 312.655C539.264 318.769 530.668 405.461 527.42 438.844C527.39 439.148 527.252 439.431 527.031 439.642C526.811 439.853 526.522 439.978 526.217 439.995ZM479.431 437.437H525.066C526.345 424.237 536.91 316.262 538.215 311.734C538.266 311.577 538.344 311.43 538.445 311.299L580.704 257.58C571.367 258.654 542.333 261.852 514.195 262.952H513.785C508.22 261.17 502.352 260.528 496.533 261.064C490.714 261.6 485.063 263.304 479.917 266.073C476.132 268.201 472.833 271.096 470.23 274.571C467.627 278.046 465.777 282.026 464.798 286.256C458.071 314.446 477.307 425.516 479.431 437.437Z" fill="#231F20"/>
<path d="M687.197 273.056C687.197 273.056 702.264 298.074 678.985 326.238C655.707 354.403 589.453 324.78 589.453 324.78L606.004 434.981L557.401 434.495C557.401 434.495 506.751 284.465 512.584 268.938C518.416 253.41 559.908 246.248 559.908 246.248L687.197 273.056Z" fill="#231F20"/>
<path d="M605.927 436.26L557.324 435.774C557.058 435.772 556.799 435.688 556.584 435.532C556.368 435.376 556.207 435.157 556.122 434.905C554.05 428.765 505.37 284.261 511.304 268.477C517.239 252.694 557.887 245.301 559.626 244.994C559.787 244.969 559.951 244.969 560.112 244.994L687.452 271.803C687.628 271.842 687.793 271.916 687.938 272.022C688.084 272.127 688.206 272.262 688.296 272.417C688.45 272.673 703.645 298.509 679.957 327.057C670.134 338.952 651.179 342.405 625.189 337.289C613.485 334.853 602.028 331.351 590.962 326.827L607.18 434.777C607.211 434.957 607.202 435.143 607.153 435.32C607.105 435.496 607.018 435.66 606.899 435.8C606.778 435.94 606.629 436.053 606.462 436.133C606.294 436.212 606.112 436.256 605.927 436.26ZM558.245 433.191L604.443 433.677L588.097 324.934C588.063 324.706 588.091 324.474 588.178 324.261C588.264 324.049 588.407 323.863 588.59 323.724C588.773 323.585 588.991 323.499 589.219 323.473C589.447 323.447 589.679 323.483 589.888 323.578C590.553 323.885 655.605 352.484 677.988 325.394C689.703 311.223 691.289 297.946 690.548 289.3C690.137 284.037 688.713 278.904 686.352 274.182L559.831 247.553C556.454 248.166 518.902 255.227 513.786 269.373C509.079 281.677 543.996 390.957 558.245 433.191Z" fill="#231F20"/>
<path d="M529.441 350.258C529.188 350.261 528.94 350.186 528.73 350.044C528.52 349.903 528.358 349.701 528.265 349.465C527.165 346.677 501.431 280.884 509.514 264.384C509.906 263.467 510.494 262.645 511.236 261.978C511.978 261.311 512.857 260.814 513.812 260.522C513.973 260.475 514.142 260.46 514.309 260.478C514.476 260.496 514.637 260.547 514.785 260.628C514.932 260.709 515.062 260.818 515.167 260.949C515.272 261.08 515.35 261.23 515.398 261.391C515.486 261.717 515.444 262.064 515.282 262.36C515.12 262.655 514.85 262.877 514.528 262.978C513.915 263.178 513.355 263.511 512.886 263.953C512.417 264.395 512.052 264.936 511.816 265.536C504.142 281.037 530.362 347.879 530.643 348.544C530.705 348.702 530.735 348.871 530.731 349.04C530.727 349.209 530.689 349.376 530.62 349.531C530.551 349.686 530.452 349.825 530.329 349.941C530.205 350.057 530.06 350.148 529.902 350.207L529.441 350.258Z" fill="white"/>
<path d="M589.376 326.059C589.142 326.064 588.911 326.002 588.711 325.88C588.071 325.496 572.979 316.287 568.707 309.764C568.612 309.626 568.545 309.47 568.512 309.305C568.479 309.14 568.478 308.971 568.512 308.806C568.545 308.641 568.611 308.485 568.706 308.347C568.801 308.208 568.923 308.09 569.065 307.999C569.347 307.814 569.69 307.748 570.021 307.815C570.352 307.882 570.642 308.077 570.83 308.357C574.795 314.42 589.887 323.706 590.041 323.706C590.329 323.886 590.535 324.171 590.616 324.5C590.698 324.83 590.647 325.178 590.476 325.471C590.354 325.651 590.191 325.799 589.999 325.902C589.807 326.005 589.593 326.059 589.376 326.059Z" fill="white"/>
<path d="M687.197 273.056C687.197 273.056 740.634 141.393 701.164 111.182C661.693 80.9718 605.441 94.4272 597.767 122.668C590.093 150.909 559.831 246.248 559.831 246.248C559.831 246.248 656.781 275.154 687.197 273.056Z" fill="#3782FF"/>
<path d="M631.328 125.533L622.094 218.467L673.025 118.959L631.328 125.533Z" fill="#231F20"/>
<path d="M621.992 219.746C621.865 219.771 621.735 219.771 621.608 219.746C621.32 219.668 621.069 219.487 620.904 219.238C620.74 218.988 620.672 218.687 620.713 218.391L629.973 125.457C629.998 125.172 630.118 124.905 630.312 124.696C630.507 124.487 630.766 124.35 631.048 124.305L672.718 117.757C672.954 117.713 673.198 117.738 673.42 117.829C673.642 117.919 673.834 118.072 673.972 118.268C674.091 118.47 674.154 118.699 674.154 118.933C674.154 119.168 674.091 119.397 673.972 119.599L623.015 219.107C622.911 219.29 622.762 219.443 622.584 219.555C622.405 219.667 622.202 219.732 621.992 219.746ZM632.403 126.633L623.911 211.868L670.646 120.622L632.403 126.633Z" fill="#231F20"/>
<path d="M601.272 111.336L534.558 158.532L540.646 218.467L612.143 188.257C612.143 188.257 623.987 121.952 601.272 111.336Z" fill="#3782FF"/>
<path d="M627.108 112.692C631.904 111.08 636.992 110.53 642.022 111.08C649.875 112.461 657.063 116.196 665.044 117.373C673.843 118.166 682.696 118.166 691.495 117.373C694.053 117.245 691.495 120.698 693.643 119.215C700.857 113.945 700.499 103.508 700.473 95.6805C700.693 77.551 698.43 59.4767 693.746 41.9613C691.188 32.8547 681.083 -0.476813 666.323 13.8227C669.649 10.574 653.533 3.00215 651.231 2.36263C630.306 -3.44416 611.325 14.9483 606.644 34.0825C603.242 47.9728 602.986 61.7607 596.412 74.8068C593.495 80.5624 589.709 86.2413 589.454 92.7132C589.519 96.614 590.665 100.42 592.765 103.708C594.865 106.996 597.837 109.637 601.349 111.336C608.477 114.611 616.513 115.343 624.115 113.408L627.108 112.692Z" fill="white"/>
<path d="M692.901 120.852C692.66 120.847 692.423 120.786 692.21 120.673C691.921 120.478 691.696 120.201 691.564 119.877C691.432 119.554 691.398 119.199 691.468 118.857V118.678L687.452 118.857C679.932 119.48 672.372 119.411 664.864 118.652C660.61 117.928 656.432 116.815 652.381 115.327C648.924 114.066 645.375 113.074 641.765 112.359C637.166 111.831 632.506 112.302 628.105 113.741L627.363 113.92L624.319 114.661C616.428 116.631 608.1 115.855 600.708 112.462C596.974 110.666 593.815 107.864 591.587 104.371C589.359 100.877 588.15 96.831 588.097 92.6877C588.701 87.2188 590.566 81.9646 593.546 77.3394C594.109 76.2906 594.671 75.2418 595.209 74.193C599.608 65.5468 601.143 56.6703 602.883 47.2822C603.625 42.8568 604.418 38.3034 605.441 33.7501C608.472 21.6648 616.098 11.239 626.698 4.69058C630.387 2.42507 634.501 0.938587 638.786 0.322682C643.07 -0.293223 647.436 -0.0255215 651.614 1.1093C653.072 1.51859 664.992 6.73703 667.576 11.1113C668.719 10.181 670.063 9.52824 671.501 9.20425C672.939 8.88025 674.432 8.89384 675.864 9.24392C684.817 11.6485 691.212 28.0968 695.024 41.4754C699.767 59.1197 702.048 77.3349 701.803 95.6039V96.576C701.803 104.25 701.803 114.764 694.436 120.187C694.006 120.563 693.469 120.796 692.901 120.852ZM691.596 115.992C691.924 115.974 692.252 116.024 692.56 116.139C692.868 116.253 693.15 116.429 693.387 116.657C693.572 116.849 693.72 117.075 693.822 117.322C699.296 112.462 699.245 103.662 699.219 96.5248V95.5783C699.46 77.5351 697.213 59.5448 692.543 42.115C687.426 24.2086 681.262 13.2857 675.199 11.6741C673.726 11.3968 672.205 11.5292 670.802 12.057C669.399 12.5848 668.168 13.4876 667.243 14.667C666.999 14.9045 666.671 15.0352 666.33 15.0304C665.989 15.0256 665.665 14.8857 665.427 14.6414C665.19 14.3972 665.059 14.0686 665.064 13.728C665.069 13.3874 665.209 13.0626 665.453 12.8252C665.913 10.9067 654.479 4.51151 650.897 3.51387C647.037 2.45729 643.001 2.20727 639.04 2.77942C635.079 3.35156 631.278 4.7336 627.875 6.83935C617.862 13.0305 610.665 22.8896 607.82 34.3129C606.72 38.7639 605.952 43.2917 605.262 47.6659C603.701 56.8494 602.064 66.3142 597.588 75.3185C597.05 76.3673 596.462 77.4161 595.899 78.4905C593.151 82.7703 591.403 87.6141 590.783 92.6621C590.84 96.3219 591.919 99.8928 593.899 102.971C595.879 106.05 598.681 108.513 601.987 110.083C608.859 113.209 616.591 113.903 623.91 112.052L626.877 111.336L627.619 111.157C632.362 109.626 637.379 109.137 642.328 109.724C646.065 110.476 649.742 111.502 653.328 112.794C657.229 114.232 661.253 115.311 665.351 116.017C672.697 116.755 680.095 116.815 687.452 116.196L691.545 115.992H691.596Z" fill="#231F20"/>
<path d="M614.599 41.5265C614.599 41.5265 607.616 62.9886 611.785 79.0277C612.83 83.5084 615.157 87.5879 618.483 90.7678C621.808 93.9477 625.987 96.0904 630.51 96.9341L631.329 125.508C631.329 125.508 631.636 140.14 649.465 137.351C654.637 136.545 659.516 134.429 663.64 131.205C667.763 127.982 670.994 123.757 673.025 118.933L673.537 66.3141C673.537 66.3141 652.893 55.2121 654.095 36.3081C654.095 36.3337 630.306 48.7147 614.599 41.5265Z" fill="white"/>
<path d="M645.193 139.014C641.496 139.184 637.862 138.012 634.961 135.714C633.511 134.416 632.333 132.843 631.494 131.087C630.656 129.331 630.173 127.426 630.075 125.482L629.257 98.0854C624.717 97.0102 620.565 94.6985 617.259 91.4068C613.954 88.115 611.625 83.9719 610.532 79.4371C606.336 63.2191 613.09 42.0895 613.397 41.0663C613.452 40.8974 613.542 40.7419 613.661 40.6098C613.78 40.4777 613.925 40.3718 614.087 40.2989C614.253 40.2292 614.432 40.1934 614.612 40.1934C614.792 40.1934 614.97 40.2292 615.136 40.2989C630.101 47.1545 653.277 35.1828 653.507 35.1828C653.706 35.0707 653.931 35.0118 654.159 35.0118C654.388 35.0118 654.612 35.0707 654.812 35.1828C654.998 35.3082 655.149 35.4807 655.248 35.6828C655.346 35.8849 655.39 36.1095 655.374 36.3339C654.223 54.2403 673.946 65.0353 674.125 65.1376C674.332 65.2446 674.505 65.406 674.627 65.6043C674.748 65.8027 674.814 66.0304 674.816 66.2631L674.304 118.908C674.328 119.043 674.328 119.182 674.304 119.317C672.219 124.37 668.861 128.798 664.558 132.169C660.255 135.54 655.152 137.74 649.747 138.554C648.244 138.832 646.721 138.986 645.193 139.014ZM615.417 43.2662C614.011 48.1521 609.585 65.4701 613.013 78.6953C613.968 82.9442 616.15 86.819 619.288 89.8386C622.425 92.8583 626.381 94.8897 630.664 95.6808C630.967 95.7173 631.247 95.8612 631.454 96.0864C631.66 96.3116 631.779 96.6033 631.789 96.9087L632.608 125.482C632.808 128.659 634.24 131.632 636.598 133.77C639.489 136.328 643.761 136.968 649.388 136.124C654.293 135.338 658.921 133.33 662.846 130.286C666.771 127.242 669.867 123.258 671.848 118.703L672.334 67.0817C668.804 65.0097 653.149 54.8798 652.867 38.3803C646.907 41.1175 628.95 48.4335 615.417 43.2662Z" fill="#231F20"/>
<path d="M663.509 62.9377C663.509 62.9377 671.771 42.8314 682.08 55.0589C692.389 67.2864 678.294 81.4069 669.443 80.486" fill="white"/>
<path d="M670.288 81.8161H669.316C669.148 81.8001 668.984 81.7509 668.835 81.6714C668.686 81.5919 668.554 81.4836 668.447 81.3527C668.34 81.2219 668.26 81.0712 668.211 80.9092C668.163 80.7472 668.147 80.5773 668.165 80.4092C668.181 80.2409 668.23 80.0774 668.309 79.9283C668.389 79.7791 668.497 79.6472 668.628 79.5402C668.759 79.4331 668.91 79.3531 669.072 79.3047C669.234 79.2562 669.403 79.2404 669.572 79.258C674.023 79.7185 680.008 75.8047 682.797 70.5095C684.099 68.2145 684.638 65.5646 684.334 62.9433C684.031 60.322 682.901 57.8652 681.108 55.9286C680.408 54.8326 679.432 53.9394 678.278 53.338C677.125 52.7365 675.834 52.4479 674.534 52.5008C669.879 53.217 665.862 60.661 664.711 63.4748C664.582 63.7903 664.333 64.0417 664.019 64.1736C663.705 64.3055 663.351 64.3072 663.036 64.1783C662.72 64.0494 662.469 63.8005 662.337 63.4862C662.205 63.172 662.203 62.8182 662.332 62.5028C662.537 62.0167 667.116 51.0683 674.151 49.9683C677.246 49.4823 680.239 50.9404 683.078 54.2914C685.187 56.6238 686.513 59.5575 686.871 62.6815C687.229 65.8054 686.6 68.963 685.073 71.7118C681.953 77.6209 675.711 81.8161 670.288 81.8161Z" fill="#231F20"/>
<path d="M626.187 79.6416C624.8 79.6819 623.421 79.4201 622.145 78.8742C621.835 78.7253 621.562 78.5072 621.35 78.2367C621.137 77.9662 620.989 77.6504 620.917 77.3138C619.97 73.6558 626.852 63.577 629 60.5585C629.095 60.421 629.216 60.3038 629.357 60.2137C629.497 60.1236 629.654 60.0625 629.818 60.0339C629.983 60.0053 630.151 60.0099 630.314 60.0472C630.477 60.0846 630.63 60.1541 630.765 60.2515C630.904 60.3485 631.022 60.4719 631.112 60.6145C631.202 60.7572 631.264 60.9164 631.292 61.0829C631.321 61.2494 631.316 61.4199 631.278 61.5845C631.241 61.7492 631.171 61.9047 631.072 62.0422C626.468 68.5397 622.861 75.3952 623.398 76.6998C626.074 77.2722 628.853 77.131 631.456 76.2906C631.624 76.2419 631.8 76.2267 631.974 76.246C632.148 76.2652 632.316 76.3186 632.469 76.4029C632.622 76.4872 632.758 76.6009 632.867 76.7374C632.976 76.874 633.057 77.0307 633.106 77.1987C633.155 77.3666 633.17 77.5425 633.151 77.7164C633.131 77.8902 633.078 78.0585 632.994 78.2117C632.909 78.3649 632.796 78.5 632.659 78.6093C632.523 78.7186 632.366 78.7999 632.198 78.8486C630.24 79.3892 628.217 79.656 626.187 79.6416Z" fill="#231F20"/>
<path d="M630.51 96.9597C630.51 96.9597 645.858 98.4434 654.53 95.9365C654.53 95.9365 645.602 118.729 631.098 118.959L630.51 96.9597Z" fill="#231F20"/>
<path d="M631.099 120.315C630.764 120.315 630.442 120.184 630.203 119.949C629.964 119.715 629.826 119.396 629.82 119.061L629.231 96.9853C629.227 96.8039 629.261 96.6236 629.331 96.4563C629.402 96.2891 629.507 96.1388 629.64 96.0154C629.773 95.892 629.931 95.7983 630.103 95.7406C630.275 95.6829 630.458 95.6625 630.638 95.6807C630.792 95.6807 645.808 97.1132 654.172 94.7086C654.401 94.6373 654.646 94.6331 654.877 94.6966C655.108 94.76 655.317 94.8885 655.477 95.0668C655.64 95.2423 655.75 95.46 655.795 95.6952C655.841 95.9304 655.819 96.1735 655.733 96.3969C655.349 97.369 646.319 119.982 631.124 120.315H631.099ZM631.815 98.3411L632.327 117.654C642.559 116.427 649.773 103.201 652.331 97.7783C645.536 98.7476 638.653 98.9364 631.815 98.3411Z" fill="#231F20"/>
<path d="M642.206 58.0567C642.261 55.8817 641.298 54.0929 640.056 54.0613C638.813 54.0296 637.76 55.767 637.705 57.942C637.649 60.1169 638.612 61.9058 639.855 61.9375C641.098 61.9692 642.15 60.2317 642.206 58.0567Z" fill="#231F20"/>
<path d="M621.495 57.5506C621.551 55.3756 620.588 53.5868 619.345 53.5552C618.102 53.5235 617.05 55.2609 616.994 57.4359C616.939 59.6108 617.902 61.3997 619.144 61.4314C620.387 61.4631 621.44 59.7256 621.495 57.5506Z" fill="#231F20"/>
<path d="M700.192 85.2949C701.292 102.101 702.75 133.003 676.044 125.38C670.51 123.723 665.817 120.017 662.921 115.02C657.805 105.862 671.567 92.611 678.09 86.6507" fill="white"/>
<path d="M683.64 127.861C680.944 127.822 678.267 127.409 675.685 126.633C669.768 124.925 664.749 120.98 661.692 115.633C656.397 106.322 667.959 94.0946 677.04 85.7042C677.284 85.4682 677.609 85.3362 677.948 85.3362C678.288 85.3362 678.613 85.4682 678.857 85.7042C678.977 85.8231 679.072 85.9645 679.137 86.1204C679.202 86.2763 679.235 86.4434 679.235 86.6123C679.235 86.7811 679.202 86.9483 679.137 87.1042C679.072 87.26 678.977 87.4015 678.857 87.5204C673.945 92.0226 659.032 105.683 663.943 114.303C666.677 119.063 671.153 122.576 676.426 124.101C683.129 126.019 688.398 125.482 692.082 122.515C700.907 115.378 699.577 95.0922 698.937 85.346C698.926 85.1781 698.947 85.0095 699 84.8498C699.054 84.6901 699.138 84.5425 699.249 84.4154C699.359 84.2883 699.494 84.1843 699.644 84.1091C699.795 84.034 699.959 83.9893 700.127 83.9775C700.295 83.9657 700.463 83.9872 700.623 84.0406C700.783 84.094 700.93 84.1783 701.057 84.2888C701.185 84.3993 701.289 84.5337 701.364 84.6843C701.439 84.835 701.484 84.999 701.495 85.167C702.212 96.141 703.567 116.529 693.668 124.51C690.828 126.779 687.274 127.967 683.64 127.861Z" fill="#231F20"/>
<path d="M641.995 85.4741C641.995 86.8298 639.719 88.0321 636.879 88.0321C634.04 88.0321 635.191 86.9066 635.191 85.4741C635.191 84.0416 634.065 82.916 636.879 82.916C639.693 82.916 641.995 84.1183 641.995 85.4741Z" fill="#231F20"/>
<path d="M705.819 118.089C705.819 118.089 682.208 137.812 682.106 154.491C682.004 171.169 700.012 249.139 700.012 249.139L749.204 221.716C749.204 221.716 730.018 124.843 705.819 118.089Z" fill="#3782FF"/>
<path d="M562.517 239.034H562.159C561.997 238.985 561.846 238.904 561.716 238.795C561.586 238.687 561.478 238.555 561.4 238.405C561.321 238.255 561.273 238.091 561.259 237.922C561.244 237.754 561.263 237.584 561.314 237.423L596.564 122.31C596.597 122.133 596.666 121.964 596.769 121.815C596.871 121.666 597.003 121.541 597.157 121.447C597.311 121.353 597.484 121.293 597.663 121.27C597.842 121.248 598.024 121.263 598.196 121.316C598.369 121.369 598.528 121.457 598.664 121.576C598.8 121.695 598.909 121.841 598.985 122.005C599.06 122.169 599.1 122.347 599.102 122.527C599.103 122.708 599.067 122.887 598.995 123.052L563.745 238.164C563.658 238.421 563.493 238.643 563.272 238.799C563.051 238.955 562.787 239.038 562.517 239.034Z" fill="#231F20"/>
<path d="M700.499 245.097C700.206 245.103 699.921 245.007 699.692 244.824C699.463 244.642 699.305 244.386 699.245 244.099C679.318 155.207 680.546 154.158 681.339 153.518C681.582 153.282 681.908 153.151 682.247 153.151C682.586 153.151 682.912 153.282 683.155 153.518C683.302 153.688 683.401 153.893 683.441 154.114C683.482 154.334 683.462 154.561 683.385 154.772C683.385 158.942 694.308 209.898 701.829 243.409C701.866 243.573 701.871 243.744 701.843 243.91C701.814 244.077 701.753 244.236 701.663 244.379C701.572 244.521 701.454 244.645 701.316 244.742C701.178 244.839 701.022 244.907 700.857 244.943L700.499 245.097Z" fill="#231F20"/>
<path d="M631.84 243.818L540.133 278.377L499.409 249.138L579.579 224.939L631.84 243.818Z" fill="white"/>
<path d="M540.133 279.707C539.86 279.71 539.593 279.629 539.366 279.477L498.667 250.213C498.469 250.076 498.313 249.886 498.218 249.664C498.123 249.442 498.092 249.198 498.13 248.96C498.175 248.728 498.282 248.513 498.44 248.337C498.597 248.161 498.8 248.032 499.025 247.962L579.195 223.788C579.462 223.712 579.746 223.712 580.013 223.788L632.223 242.616C632.465 242.714 632.673 242.879 632.822 243.092C632.972 243.306 633.057 243.558 633.068 243.818C633.067 244.081 632.986 244.337 632.835 244.552C632.684 244.767 632.471 244.931 632.223 245.02L540.568 279.707C540.425 279.734 540.277 279.734 540.133 279.707ZM502.249 249.65L540.312 276.996L628.13 243.895L579.527 226.346L502.249 249.65Z" fill="#231F20"/>
<path d="M743.473 224.965C743.473 224.965 753.706 276.714 725.848 281.651C697.991 286.588 605.62 268.503 605.62 268.503C605.62 268.503 573.542 274.156 575.588 265.945C577.634 257.733 597.664 254.101 597.664 254.101C597.664 254.101 581.139 246.094 589.274 246.12C597.93 246.634 606.554 247.599 615.11 249.01L700.549 237.627" fill="white"/>
<path d="M713.212 283.8C678.218 283.8 611.171 271.01 605.774 269.808C600.939 270.652 579.784 274.003 575.333 269.194C574.908 268.744 574.609 268.191 574.465 267.589C574.322 266.988 574.338 266.359 574.514 265.766C576.228 259.089 587.944 255.304 594.058 253.769C585.36 249.164 585.77 247.348 585.949 246.632C586.332 244.969 588.507 244.969 589.428 244.969C598.093 245.47 606.725 246.426 615.29 247.834L700.55 236.476C700.889 236.432 701.232 236.525 701.503 236.733C701.774 236.942 701.951 237.25 701.995 237.589C702.039 237.928 701.947 238.271 701.738 238.542C701.529 238.813 701.221 238.99 700.882 239.034L615.443 250.392C615.317 250.418 615.186 250.418 615.059 250.392C606.587 249 598.049 248.044 589.479 247.527H589.095C592.014 249.699 595.152 251.559 598.458 253.078C598.695 253.201 598.889 253.393 599.013 253.63C599.137 253.866 599.186 254.135 599.153 254.4C599.119 254.665 599.005 254.914 598.826 255.112C598.647 255.31 598.411 255.448 598.151 255.508C592.804 256.506 578.582 260.445 577.072 266.406C576.997 266.581 576.976 266.774 577.012 266.962C577.049 267.149 577.141 267.32 577.277 267.454C580.04 270.447 596.13 268.912 605.62 267.25H606.106C607.027 267.429 698.529 285.156 725.747 280.398C728.192 279.982 730.526 279.071 732.607 277.72C734.688 276.37 736.47 274.609 737.846 272.545C748.283 257.376 742.604 226.5 742.348 225.221C742.315 225.032 742.323 224.838 742.372 224.653C742.42 224.467 742.508 224.295 742.63 224.146C742.781 223.955 742.985 223.811 743.217 223.734C743.449 223.657 743.698 223.649 743.934 223.712C744.169 223.769 744.381 223.894 744.545 224.072C744.709 224.249 744.817 224.471 744.855 224.709L743.602 224.965L744.881 224.735C745.52 228.111 750.815 258.245 739.944 274.003C738.381 276.35 736.354 278.351 733.986 279.882C731.619 281.414 728.963 282.442 726.181 282.905C721.892 283.575 717.553 283.874 713.212 283.8Z" fill="#231F20"/>
<path d="M387.673 445.572C390.327 448.124 393.721 449.772 397.368 450.278C401.64 450.278 447.966 441.734 449.885 448.078C451.804 454.422 448.018 457.594 436.941 462.813C422.105 469.796 372.299 486.193 372.299 486.193L361.402 460.613L387.673 445.572Z" fill="white"/>
<path d="M372.299 487.37C372.068 487.376 371.841 487.31 371.649 487.182C371.457 487.054 371.309 486.869 371.225 486.654L360.327 461.074C360.215 460.813 360.202 460.521 360.291 460.252C360.381 459.982 360.567 459.756 360.813 459.615L387.085 444.574C387.318 444.44 387.589 444.39 387.854 444.432C388.12 444.474 388.363 444.605 388.543 444.804C390.975 447.127 394.067 448.637 397.394 449.127C400.516 448.915 403.625 448.531 406.705 447.976C434.306 444.114 449.527 442.86 451.011 447.746C453.211 455.037 448.606 458.618 437.427 463.887C422.718 470.845 373.169 487.166 372.657 487.345L372.299 487.37ZM362.886 461.099L372.964 484.761C380.127 482.382 423 468.083 436.43 461.739C447.813 456.367 450.345 453.63 448.759 448.386C447.608 444.574 417.065 448.846 407.038 450.253C401.41 451.046 398.417 451.379 397.343 451.43C393.685 450.977 390.251 449.425 387.494 446.979L362.886 461.099Z" fill="#231F20"/>
<path d="M243.681 473.019C243.681 473.019 293.333 490.082 295.456 493.33C297.579 496.579 293.819 500.391 280.594 501.567C267.368 502.744 210.784 499.674 210.784 499.674C210.784 499.674 210.068 484.326 213.624 476.652C217.179 468.978 243.681 473.019 243.681 473.019Z" fill="white"/>
<path d="M271.153 503C250.893 503 212.65 500.954 210.732 500.851C210.439 500.833 210.163 500.709 209.956 500.502C209.749 500.294 209.625 500.018 209.606 499.726C209.606 499.086 208.941 484.019 212.548 476.089C216.36 467.725 241.045 471.434 243.859 471.869H244.038C255.779 475.91 294.252 489.315 296.427 492.666C296.842 493.246 297.095 493.927 297.158 494.638C297.221 495.348 297.092 496.063 296.785 496.707C295.276 499.803 289.699 501.823 280.695 502.668C278.52 502.923 275.195 503 271.153 503ZM211.909 498.575C219.787 498.984 268.518 501.465 280.49 500.391C292.053 499.368 294.278 496.579 294.662 495.735C294.805 495.455 294.864 495.139 294.832 494.826C294.8 494.513 294.679 494.216 294.483 493.97C292.513 491.668 262.149 480.617 243.322 474.171C233.396 472.585 216.897 471.996 214.595 477.061C211.832 483.329 211.832 495.019 211.909 498.575Z" fill="#231F20"/>
<path d="M114.908 311.274C114.908 311.274 74.3887 210 78.6351 160.042C82.8815 110.083 115.497 107.039 126.931 106.322C138.366 105.606 198.403 97.5994 220.326 124.485C242.248 151.37 236.621 280.859 236.621 280.859L114.908 311.274Z" fill="#3782FF"/>
<path d="M186.431 129.396L185.689 230.874L142.612 122.592L186.431 129.396Z" fill="#231F20"/>
<path d="M185.69 232.153C185.434 232.153 185.183 232.078 184.969 231.937C184.756 231.796 184.588 231.596 184.488 231.36L141.41 123.052C141.335 122.838 141.314 122.61 141.35 122.386C141.385 122.163 141.476 121.952 141.614 121.773C141.755 121.594 141.94 121.457 142.152 121.376C142.364 121.295 142.593 121.273 142.817 121.312L186.636 128.142C186.939 128.185 187.217 128.335 187.419 128.565C187.62 128.795 187.733 129.09 187.736 129.396L186.969 230.899C186.962 231.193 186.854 231.476 186.663 231.7C186.472 231.923 186.209 232.074 185.92 232.127L185.69 232.153ZM144.761 124.177L184.564 224.325L185.255 130.496L144.761 124.177Z" fill="#231F20"/>
<path d="M239.102 255.201C239.102 255.201 288.625 268.452 332.905 298.535C353.216 312.323 391.152 447.593 391.152 447.593C391.152 447.593 386.906 471.024 359.842 467.366L241.557 314.113C241.557 314.113 216.181 254.613 239.102 255.201Z" fill="#231F20"/>
<path d="M365.368 469.004C363.459 468.999 361.553 468.862 359.663 468.594C359.331 468.542 359.03 468.369 358.819 468.108L240.56 314.855C240.486 314.771 240.425 314.676 240.381 314.574C239.639 312.809 221.886 270.857 230.712 257.862C231.636 256.513 232.903 255.435 234.382 254.738C235.861 254.041 237.499 253.751 239.128 253.897H239.434C239.921 254.025 289.675 267.557 333.622 297.384C354.087 311.299 390.82 441.632 392.457 447.183C392.495 447.369 392.495 447.561 392.457 447.746C391.143 453.899 387.712 459.397 382.762 463.281C377.812 467.165 371.657 469.19 365.368 469.004ZM360.533 466.139C384.297 469.08 389.26 450.279 389.823 447.618C387.827 440.532 351.452 312.63 332.19 299.558C289.777 270.754 241.941 257.273 238.923 256.455H238.769C237.619 256.37 236.466 256.588 235.425 257.086C234.384 257.584 233.491 258.345 232.835 259.294C225.033 270.805 241.507 310.66 242.683 313.423L360.533 466.139Z" fill="#231F20"/>
<path d="M114.907 311.274C114.907 311.274 208.737 273.108 232.782 269.577C232.782 269.577 267.188 282.368 284.865 314.957C302.541 347.547 243.68 473.02 243.68 473.02C233.995 478.747 222.56 480.765 211.499 478.699L210.732 347.368C210.732 347.368 97.3845 358.598 114.907 311.274Z" fill="#231F20"/>
<path d="M220.07 480.796C217.108 480.793 214.153 480.51 211.245 479.952C210.956 479.893 210.696 479.736 210.51 479.508C210.323 479.279 210.221 478.993 210.221 478.699L209.454 348.775C198.659 349.721 132.84 354.479 115.829 332.429C111.276 326.571 110.713 319.306 113.706 310.839C113.767 310.672 113.863 310.52 113.986 310.393C114.109 310.265 114.258 310.164 114.422 310.097C118.259 308.537 208.661 271.726 232.604 268.298C232.815 268.248 233.034 268.248 233.244 268.298C233.576 268.426 268.289 281.677 285.991 314.343C303.693 347.01 247.236 468.415 244.832 473.557C244.737 473.779 244.576 473.966 244.371 474.094C237.033 478.501 228.63 480.818 220.07 480.796ZM212.703 477.624C223.003 479.262 233.554 477.331 242.606 472.15C245.957 464.885 300.418 346.345 283.663 315.571C267.292 285.437 235.981 272.238 232.502 270.882C209.3 274.514 123.375 309.253 115.803 312.246C113.245 319.613 113.859 325.855 117.722 330.868C135.014 353.277 209.812 346.217 210.477 346.217C210.651 346.2 210.827 346.219 210.994 346.271C211.161 346.324 211.316 346.41 211.449 346.524C211.584 346.642 211.692 346.788 211.767 346.951C211.842 347.114 211.882 347.291 211.884 347.47L212.703 477.624Z" fill="#231F20"/>
<path d="M282.743 369.009H282.512C282.179 368.947 281.883 368.757 281.687 368.48C281.492 368.203 281.411 367.861 281.464 367.525C284.764 348.749 288.166 319.127 284.022 314.471C270.387 299.43 236.519 274.361 236.186 274.105C235.918 273.906 235.738 273.61 235.686 273.28C235.633 272.95 235.712 272.613 235.905 272.34C236.108 272.07 236.409 271.89 236.743 271.838C237.077 271.785 237.419 271.864 237.695 272.059C238.028 272.315 272.101 297.639 285.915 312.757C292.335 319.818 284.943 363.074 284.073 367.986C284.017 368.291 283.85 368.564 283.604 368.753C283.359 368.942 283.052 369.033 282.743 369.009Z" fill="white"/>
<path d="M220.376 124.484C220.376 124.484 236.62 155.693 246.187 171.732C255.754 187.771 276.526 210.768 276.526 210.768C276.526 210.768 350.095 236.937 350.581 238.344C351.067 239.751 343.598 264.487 343.598 264.487C343.598 264.487 266.421 258.936 253.631 252.899C240.841 246.862 214.953 217.086 214.953 217.086L220.376 124.484Z" fill="#3782FF"/>
<path d="M169.753 140.6L164.33 149.144L170.265 152.674L170.853 193.603L185.69 230.874L186.432 196.391L174.076 151.497L177.76 147.174L169.753 140.6Z" fill="white"/>
<path d="M185.689 232.153C185.433 232.153 185.183 232.078 184.969 231.937C184.755 231.796 184.587 231.595 184.487 231.36L169.676 194.089C169.664 193.936 169.664 193.782 169.676 193.629L169.113 153.39L163.767 150.244C163.475 150.055 163.264 149.763 163.178 149.425C163.138 149.26 163.133 149.088 163.163 148.92C163.194 148.752 163.26 148.593 163.357 148.453L168.781 139.909C168.877 139.756 169.004 139.625 169.154 139.524C169.303 139.423 169.472 139.353 169.65 139.321C169.831 139.295 170.015 139.307 170.191 139.355C170.367 139.404 170.531 139.488 170.674 139.602L178.68 146.177C178.811 146.285 178.918 146.418 178.997 146.569C179.075 146.719 179.123 146.884 179.137 147.053C179.152 147.222 179.132 147.392 179.08 147.553C179.028 147.715 178.944 147.864 178.834 147.993L175.508 151.804L187.685 196.059C187.697 196.186 187.697 196.315 187.685 196.442L186.917 230.899C186.91 231.193 186.802 231.476 186.611 231.7C186.42 231.923 186.158 232.074 185.868 232.127L185.689 232.153ZM172.132 193.373L184.564 224.555L185.178 196.57L172.848 151.804C172.799 151.602 172.797 151.39 172.841 151.187C172.885 150.983 172.975 150.792 173.104 150.628L175.943 147.302L170.06 142.467L166.12 148.683L170.929 151.549C171.116 151.659 171.271 151.816 171.378 152.005C171.486 152.193 171.543 152.406 171.543 152.623L172.132 193.373Z" fill="#231F20"/>
<path d="M139.926 24.5921C141.402 24.0292 142.939 23.6428 144.505 23.4409C150.747 22.7247 150.849 24.0805 155.658 20.0387C162.995 14.2667 171.92 10.875 181.239 10.3181C199.145 9.14139 212.166 18.1202 208.073 37.7661C206.105 45.5473 202.532 52.8314 197.585 59.1514C187.352 73.1696 173.206 85.8575 155.965 87.29C150.849 87.6737 141.256 87.29 137.547 83.1204C132.277 77.145 128.634 69.9142 126.968 62.1234C125.301 54.3326 125.667 46.2441 128.031 38.6358C128.975 35.3776 130.548 32.3359 132.661 29.6826C134.624 27.4106 137.12 25.6614 139.926 24.5921Z" fill="white"/>
<path d="M152.818 88.5437C148.264 88.5437 140.206 87.9298 136.523 83.8369C131.12 77.7106 127.387 70.2951 125.684 62.306C123.981 54.3168 124.367 46.0237 126.802 38.2268C127.795 34.8134 129.456 31.631 131.688 28.8643C134.95 25.0971 139.523 22.7105 144.478 22.1878C145.769 22.0278 147.067 21.9339 148.367 21.9064C150.925 21.9064 151.718 21.9064 154.941 19.0669C162.44 13.0914 171.612 9.59596 181.187 9.06492C191.751 8.37424 200.321 11.1369 205.309 16.7391C209.76 21.8552 211.167 29.1712 209.351 37.8942C207.393 45.8659 203.746 53.3243 198.658 59.7656C189.833 71.9931 175.303 86.881 156.092 88.3135C155.606 88.467 154.429 88.5437 152.818 88.5437ZM184.231 11.4951C183.259 11.4951 182.261 11.4951 181.238 11.4951C172.188 12.0736 163.531 15.4027 156.425 21.0366C155.398 22.1561 154.142 23.0416 152.743 23.6331C151.344 24.2245 149.834 24.508 148.316 24.4644C147.369 24.4644 146.192 24.4644 144.606 24.7202C143.143 24.8993 141.708 25.2603 140.334 25.7946C137.735 26.7794 135.423 28.3972 133.607 30.5014C131.592 33.0265 130.089 35.9198 129.181 39.0198C126.9 46.405 126.561 54.2536 128.196 61.8081C129.831 69.3627 133.387 76.3682 138.518 82.1486C141.434 85.3973 149.569 86.395 155.887 85.8834C174.101 84.5276 188.068 70.1769 196.56 58.4098C201.422 52.2525 204.911 45.1267 206.793 37.5105C208.43 29.5805 207.228 23.0319 203.314 18.5297C199.4 14.0275 192.595 11.4951 184.231 11.4951Z" fill="#231F20"/>
<path d="M186.457 102.383V129.396C186.457 129.396 180.113 144.258 162.437 139.782C144.761 135.305 142.612 122.566 142.612 122.566L143.405 72.5046C143.405 72.5046 156.63 65.6491 153.1 37.0756C167.545 43.4876 183.45 45.8911 199.145 44.0335C199.145 44.0335 204.568 75.2673 202.675 89.0297C200.756 102.434 186.687 102.204 186.457 102.383Z" fill="white"/>
<path d="M168.805 141.905C166.551 141.885 164.309 141.584 162.129 141.01C143.864 136.354 141.434 123.333 141.357 122.796L142.125 72.5559C142.132 72.3244 142.199 72.0988 142.321 71.9014C142.442 71.704 142.612 71.5417 142.816 71.4304C142.816 71.4304 155.197 64.4981 151.845 37.3059C151.808 37.075 151.839 36.8383 151.935 36.6247C152.03 36.4112 152.186 36.2301 152.383 36.1036C152.579 35.9839 152.805 35.9205 153.035 35.9205C153.265 35.9205 153.491 35.9839 153.687 36.1036C167.897 42.3587 183.516 44.7162 198.939 42.9337C199.262 42.9022 199.585 42.9922 199.845 43.1862C200.106 43.3801 200.284 43.664 200.346 43.9825C200.551 45.2615 205.769 75.5745 203.851 89.388C202.751 97.5482 197.021 102.588 187.735 103.636V129.498C187.762 129.659 187.762 129.823 187.735 129.984C186.009 133.542 183.321 136.544 179.975 138.651C176.629 140.758 172.759 141.885 168.805 141.905ZM144.683 73.2978L143.89 122.592C143.89 122.847 146.167 134.307 162.768 138.528C178.117 142.468 184.307 130.854 185.177 129.115V102.383C185.175 102.193 185.215 102.005 185.295 101.832C185.374 101.66 185.491 101.507 185.637 101.385C185.984 101.151 186.396 101.034 186.814 101.053C195.332 100.285 200.346 96.0901 201.318 88.9275C202.955 77.0325 198.965 51.3241 198.018 45.4405C183.23 46.9845 168.289 44.8401 154.531 39.1989C156.962 63.2191 147.394 71.456 144.683 73.2978Z" fill="#231F20"/>
<path d="M153.868 71.8395C153.294 69.3939 151.938 67.2024 150.005 65.5979C148.147 64.1885 146.062 63.1071 143.84 62.4003C142.664 61.8881 141.388 61.6435 140.105 61.684C139.202 61.8125 138.333 62.1167 137.547 62.5793C135.622 63.4883 134.088 65.0589 133.224 67.0048C132.704 68.6591 132.598 70.4162 132.917 72.1209C133.118 73.9687 133.557 75.7828 134.222 77.5184C134.917 79.2487 135.95 80.8229 137.261 82.1489C138.572 83.4749 140.135 84.526 141.857 85.2406C143.579 85.9553 145.427 86.3191 147.292 86.3109C149.156 86.3026 151.001 85.9224 152.717 85.1926" fill="white"/>
<path d="M147.165 87.4181C144.137 87.4123 141.177 86.5104 138.66 84.8262C136.143 83.142 134.18 80.7507 133.019 77.9533C132.294 76.1171 131.829 74.1884 131.638 72.2233C131.289 70.3297 131.412 68.3792 131.996 66.5444C132.971 64.308 134.713 62.4936 136.908 61.4283C137.824 60.8807 138.842 60.524 139.901 60.3795C141.383 60.3148 142.861 60.5859 144.224 61.1725C146.583 61.9297 148.797 63.08 150.772 64.5747C152.906 66.3645 154.405 68.7961 155.044 71.507C155.086 71.6701 155.094 71.8398 155.069 72.0062C155.044 72.1725 154.985 72.3321 154.897 72.4753C154.808 72.6185 154.692 72.7425 154.555 72.8398C154.418 72.9372 154.262 73.0059 154.098 73.0419C153.769 73.1188 153.423 73.0624 153.135 72.8851C152.848 72.7078 152.642 72.4239 152.563 72.0954C152.045 69.9256 150.843 67.9797 149.135 66.5444C147.38 65.2366 145.417 64.2335 143.328 63.5771C142.342 63.1256 141.267 62.8984 140.182 62.912C139.457 63.0328 138.762 63.2935 138.135 63.6794C136.495 64.4497 135.168 65.7588 134.375 67.3886C133.972 68.8378 133.902 70.3594 134.171 71.8396C134.335 73.5946 134.748 75.3173 135.398 76.9557C136.044 78.5127 136.991 79.9267 138.185 81.1164C139.379 82.3061 140.797 83.248 142.356 83.888C145.515 85.1666 149.046 85.1666 152.205 83.888C152.357 83.817 152.522 83.778 152.69 83.7733C152.857 83.7686 153.024 83.7983 153.18 83.8606C153.336 83.9229 153.477 84.0166 153.596 84.1357C153.714 84.2548 153.806 84.3968 153.868 84.5531C153.935 84.7076 153.972 84.8739 153.975 85.0425C153.978 85.2111 153.948 85.3787 153.886 85.5357C153.824 85.6926 153.732 85.8357 153.615 85.9568C153.497 86.078 153.357 86.1747 153.202 86.2414C151.29 87.037 149.237 87.4373 147.165 87.4181Z" fill="#231F20"/>
<path d="M185.408 62.0679C185.408 62.0679 195.026 75.7279 192.877 78.1836C190.728 80.6394 184.512 79.1813 184.512 79.1813" fill="white"/>
<path d="M188.299 80.8951C186.931 80.8839 185.567 80.7295 184.231 80.4347C184.063 80.3977 183.904 80.3281 183.763 80.2296C183.622 80.1312 183.502 80.006 183.409 79.8611C183.317 79.7162 183.254 79.5545 183.223 79.3851C183.193 79.2158 183.197 79.0422 183.234 78.8743C183.271 78.7063 183.34 78.5473 183.439 78.4062C183.537 78.2652 183.662 78.1449 183.807 78.0523C183.952 77.9596 184.114 77.8964 184.283 77.8663C184.453 77.8362 184.626 77.8397 184.794 77.8766C186.917 78.3626 190.729 78.6185 191.906 77.2627C192.443 76.0092 188.913 69.2048 184.231 62.7329C184.059 62.4545 183.999 62.1203 184.066 61.7994C184.132 61.4785 184.319 61.1953 184.588 61.0082C184.857 60.8212 185.188 60.7446 185.512 60.7942C185.836 60.8438 186.128 61.0158 186.329 61.2748C190.14 66.6723 196.152 76.1371 193.722 78.951C192.996 79.624 192.141 80.1431 191.209 80.4772C190.277 80.8113 189.287 80.9535 188.299 80.8951Z" fill="#231F20"/>
<path d="M180.078 59.2406C180.188 57.4638 179.248 55.96 177.979 55.8818C176.71 55.8035 175.592 57.1803 175.483 58.9571C175.373 60.7338 176.313 62.2375 177.582 62.3158C178.851 62.3941 179.969 61.0173 180.078 59.2406Z" fill="#231F20"/>
<path d="M197.739 62.3643C199.008 62.2751 199.935 60.7634 199.81 58.9876C199.685 57.2119 198.556 55.8447 197.287 55.9338C196.019 56.023 195.092 57.5347 195.217 59.3104C195.341 61.0862 196.471 62.4534 197.739 62.3643Z" fill="#231F20"/>
<path d="M185.869 89.0809C180.548 89.0809 173.564 88.2623 168.96 84.5531C168.695 84.3375 168.525 84.0264 168.486 83.6868C168.448 83.3472 168.545 83.0061 168.755 82.7369C168.859 82.6054 168.989 82.4961 169.136 82.4157C169.284 82.3352 169.446 82.2851 169.613 82.2684C169.78 82.2517 169.948 82.2687 170.108 82.3184C170.269 82.3681 170.417 82.4495 170.546 82.5578C177.836 88.4157 192.826 86.0368 192.98 86.0112C193.319 85.9569 193.666 86.0396 193.944 86.2411C194.223 86.4426 194.409 86.7463 194.464 87.0856C194.518 87.4248 194.435 87.7717 194.234 88.0499C194.032 88.3282 193.728 88.515 193.389 88.5692C190.899 88.9286 188.385 89.0997 185.869 89.0809Z" fill="#231F20"/>
<path d="M203.186 76.2906C200.67 76.2983 198.182 75.7543 195.899 74.6968C193.615 73.6393 191.591 72.094 189.969 70.1698C188.348 68.2456 187.167 65.9893 186.512 63.5597C185.856 61.1301 185.741 58.5863 186.175 56.1075C186.974 51.6171 189.519 47.6262 193.254 45.0085C196.989 42.3907 201.609 41.3595 206.102 42.1405C210.37 42.8455 214.215 45.1336 216.871 48.5483C219.526 51.9631 220.797 56.2534 220.429 60.5634C220.061 64.8734 218.081 68.8862 214.885 71.8013C211.689 74.7164 207.512 76.3194 203.186 76.2906ZM188.708 56.5679C188.203 59.4226 188.557 62.3629 189.726 65.0158C190.895 67.6687 192.826 69.9145 195.273 71.4684C197.72 73.0224 200.574 73.8143 203.472 73.7437C206.37 73.6731 209.182 72.7433 211.551 71.0721C213.131 69.9642 214.476 68.5558 215.511 66.9274C216.546 65.2991 217.25 63.4827 217.583 61.5821C217.916 59.6815 217.87 57.7341 217.45 55.851C217.029 53.9679 216.242 52.1862 215.132 50.6077C213.465 48.2381 211.132 46.416 208.429 45.3716C205.727 44.3271 202.775 44.1072 199.947 44.7395C197.119 45.3718 194.542 46.8281 192.542 48.9243C190.542 51.0205 189.207 53.6626 188.708 56.5168V56.5679Z" fill="#231F20"/>
<path d="M169.778 75.0629C168.775 75.0667 167.773 74.9811 166.785 74.8071C164.495 74.4891 162.293 73.7131 160.309 72.5254C158.325 71.3377 156.601 69.7626 155.239 67.894C153.878 66.0255 152.906 63.9018 152.383 61.6496C151.86 59.3975 151.796 57.0631 152.195 54.7857C152.594 52.5083 153.447 50.3345 154.704 48.3941C155.961 46.4537 157.597 44.7864 159.512 43.4917C161.428 42.1969 163.584 41.3013 165.854 40.8582C168.123 40.4152 170.458 40.4337 172.72 40.9128C176.07 41.5021 179.17 43.0705 181.629 45.42C184.089 47.7696 185.797 50.795 186.539 54.1145C187.28 57.434 187.022 60.8988 185.796 64.0716C184.571 67.2444 182.433 69.9831 179.652 71.942C176.758 73.9695 173.312 75.059 169.778 75.0629ZM169.778 43.2151C167.107 43.2269 164.489 43.9686 162.208 45.3601C159.928 46.7516 158.071 48.7399 156.838 51.1102C155.606 53.4805 155.044 56.1426 155.215 58.8088C155.386 61.4749 156.282 64.0438 157.806 66.2376C158.912 67.8207 160.32 69.1693 161.949 70.2057C163.578 71.2421 165.396 71.9459 167.298 72.2765C169.201 72.607 171.15 72.5577 173.033 72.1315C174.916 71.7054 176.696 70.9107 178.271 69.7933C179.851 68.6853 181.196 67.2769 182.231 65.6486C183.266 64.0202 183.97 62.2038 184.303 60.3033C184.635 58.4027 184.59 56.4552 184.17 54.5722C183.749 52.6891 182.962 50.9074 181.852 49.3288C180.506 47.3917 178.707 45.8128 176.612 44.7294C174.516 43.6461 172.188 43.0911 169.829 43.1127L169.778 43.2151Z" fill="#231F20"/>
<path d="M186.457 102.383C186.457 102.383 169.651 106.271 159.751 100.643C159.751 100.643 170.699 123.282 186.457 120.929V102.383Z" fill="#231F20"/>
<path d="M184.104 122.361C169.011 122.361 159.035 102.076 158.523 101.18C158.394 100.938 158.351 100.659 158.402 100.389C158.453 100.119 158.595 99.8747 158.805 99.6968C158.998 99.5078 159.248 99.3879 159.516 99.3555C159.784 99.3232 160.056 99.3801 160.288 99.5177C169.651 104.864 185.869 101.18 186.073 101.155C186.261 101.109 186.456 101.105 186.645 101.145C186.834 101.185 187.011 101.267 187.164 101.385C187.316 101.503 187.44 101.654 187.526 101.827C187.612 102 187.657 102.19 187.659 102.383V120.903C187.656 121.209 187.544 121.504 187.342 121.734C187.14 121.964 186.862 122.114 186.56 122.157C185.747 122.283 184.926 122.352 184.104 122.361ZM162.744 103.355C166.274 109.136 174.639 120.519 185.178 119.752V103.969C181.264 104.685 170.955 106.143 162.744 103.355Z" fill="#231F20"/>
<path d="M95.0316 118.55C81.2949 121.108 25.6571 249.624 44.7147 264.359C74.4393 287.381 177.861 264.103 177.861 264.103L169.445 224.197C169.445 224.197 102.936 226.065 101.99 212.405C101.043 198.745 140.667 135.663 135.474 126.096C130.282 116.529 95.0316 118.55 95.0316 118.55Z" fill="#3782FF"/>
<path d="M127.442 277.277C127.274 277.292 127.105 277.274 126.944 277.224C126.783 277.173 126.633 277.092 126.504 276.984C126.375 276.876 126.268 276.743 126.189 276.594C126.111 276.444 126.063 276.281 126.048 276.113C126.033 275.945 126.051 275.776 126.101 275.615C126.152 275.454 126.233 275.304 126.341 275.175C126.449 275.046 126.582 274.939 126.731 274.86C126.881 274.782 127.044 274.734 127.212 274.719L158.497 269.347L159.469 232.895L100.634 226.832C100.449 226.819 100.27 226.764 100.11 226.671C99.9507 226.578 99.8146 226.449 99.7128 226.295C99.604 226.141 99.5315 225.964 99.5005 225.778C99.4694 225.592 99.4808 225.402 99.5337 225.221L125.728 135.407C125.823 135.082 126.044 134.807 126.341 134.644C126.639 134.481 126.989 134.443 127.314 134.537C127.636 134.638 127.906 134.86 128.069 135.155C128.231 135.451 128.272 135.798 128.184 136.123L102.603 224.479L160.953 230.49C161.274 230.522 161.571 230.675 161.784 230.917C161.998 231.159 162.112 231.472 162.104 231.795L161.081 270.473C161.072 270.77 160.961 271.056 160.765 271.28C160.568 271.504 160.3 271.653 160.006 271.7L127.698 277.277H127.442Z" fill="#231F20"/>
<path d="M162.181 237.525C173.24 238.193 184.34 237.652 195.282 235.913C203.362 233.952 211.653 232.998 219.967 233.074C230.939 233.604 241.73 236.072 251.841 240.364C252.259 240.498 252.631 240.746 252.915 241.081C253.887 242.437 251.559 243.639 249.896 243.818C245.497 243.92 241.108 243.359 236.876 242.155C247.337 246.037 257.231 251.302 266.294 257.81C267.342 258.552 268.468 259.703 267.956 260.88C267.445 262.057 265.398 261.827 263.991 261.213L240.201 250.341C246.366 252.791 252.08 256.249 257.11 260.573C257.826 261.213 258.594 262.031 258.389 262.978C258.057 264.564 255.678 264.257 254.194 263.54C246.963 259.938 240.056 255.719 233.55 250.929L248.234 262.159C248.413 263.361 247.159 264.385 245.932 264.436C244.717 264.35 243.55 263.935 242.555 263.234L226.183 253.769L236.416 260.931C238.027 262.057 239.843 263.873 238.974 265.664C238.104 267.454 234.906 267.122 232.783 266.175C224.353 262.515 215.542 259.804 206.512 258.092C203.353 257.052 200.081 256.39 196.766 256.122C191.707 256.752 186.715 257.84 181.852 259.371C174.459 261.034 167.067 262.747 159.674 264.487" fill="white"/>
<path d="M236.467 268.273C235.052 268.202 233.663 267.863 232.374 267.275C224.029 263.636 215.303 260.942 206.359 259.243C205.233 259.038 204.133 258.706 203.033 258.399C201.058 257.712 198.985 257.349 196.894 257.324C193.479 257.613 190.107 258.282 186.841 259.32C185.255 259.754 183.694 260.189 182.185 260.522C174.792 262.21 167.399 263.898 160.007 265.638C159.705 265.701 159.392 265.645 159.13 265.483C158.868 265.322 158.678 265.066 158.6 264.768C158.562 264.619 158.554 264.463 158.578 264.31C158.601 264.158 158.655 264.012 158.736 263.88C158.818 263.749 158.924 263.636 159.05 263.546C159.176 263.457 159.319 263.394 159.469 263.361C166.862 261.622 174.281 259.933 181.673 258.245C183.131 257.913 184.666 257.503 186.227 257.068C189.666 255.97 193.219 255.266 196.817 254.971C199.147 255.029 201.456 255.425 203.673 256.148C204.721 256.454 205.745 256.761 206.819 256.966C215.939 258.685 224.837 261.422 233.346 265.126C234.569 265.802 235.987 266.037 237.362 265.791C237.5 265.749 237.626 265.676 237.733 265.579C237.839 265.482 237.922 265.362 237.976 265.229C238.513 264.001 236.39 262.389 235.725 261.903L225.493 254.766C225.243 254.59 225.069 254.326 225.008 254.026C224.946 253.727 225 253.415 225.16 253.155C225.328 252.902 225.586 252.724 225.881 252.658C226.177 252.591 226.487 252.641 226.746 252.796L243.118 262.261C243.922 262.859 244.881 263.214 245.881 263.285C246.077 263.273 246.269 263.221 246.444 263.133C246.62 263.045 246.776 262.923 246.904 262.773L232.758 251.952C232.615 251.868 232.491 251.755 232.395 251.62C232.299 251.485 232.232 251.331 232.2 251.168C232.168 251.005 232.17 250.838 232.207 250.676C232.244 250.514 232.314 250.362 232.414 250.23C232.514 250.097 232.641 249.987 232.786 249.907C232.931 249.827 233.092 249.779 233.257 249.765C233.422 249.752 233.589 249.773 233.745 249.828C233.901 249.883 234.044 249.971 234.165 250.085C240.611 254.839 247.458 259.024 254.629 262.594C255.358 263.008 256.215 263.135 257.034 262.952C257.187 262.696 257.034 262.338 256.241 261.571C252.8 258.584 249.023 256.008 244.985 253.896L239.613 251.338C239.363 251.195 239.174 250.964 239.082 250.691C238.991 250.417 239.003 250.119 239.117 249.854C239.23 249.588 239.438 249.374 239.699 249.252C239.96 249.129 240.258 249.107 240.534 249.19C242.402 249.931 244.218 250.776 246.008 251.748L264.375 260.164C265.064 260.532 265.854 260.667 266.626 260.547C266.933 260.087 266.396 259.371 265.526 258.757C256.542 252.309 246.734 247.096 236.365 243.255C236.081 243.151 235.85 242.94 235.721 242.667C235.592 242.394 235.575 242.082 235.674 241.797C235.768 241.509 235.97 241.269 236.236 241.126C236.503 240.983 236.815 240.949 237.106 241.029C241.211 242.214 245.473 242.757 249.743 242.641C250.144 242.64 250.539 242.556 250.905 242.393C251.271 242.23 251.598 241.992 251.866 241.694L251.278 241.439C241.301 237.188 230.647 234.745 219.814 234.225C212.611 234.104 205.42 234.868 198.403 236.502L195.385 237.064C184.391 238.803 173.241 239.352 162.13 238.702C161.975 238.695 161.823 238.658 161.683 238.593C161.543 238.527 161.417 238.435 161.312 238.321C161.208 238.207 161.127 238.073 161.074 237.928C161.021 237.783 160.997 237.628 161.004 237.474C161.004 237.319 161.035 237.166 161.097 237.024C161.158 236.883 161.248 236.755 161.361 236.649C161.473 236.544 161.607 236.463 161.752 236.411C161.898 236.359 162.052 236.338 162.207 236.348C173.172 236.998 184.175 236.467 195.026 234.762L198.045 234.199C205.237 232.525 212.61 231.751 219.993 231.897C231.106 232.437 242.035 234.94 252.276 239.29C252.891 239.499 253.433 239.881 253.836 240.39C254.085 240.725 254.236 241.122 254.272 241.538C254.308 241.953 254.228 242.371 254.041 242.743C253.578 243.419 252.961 243.973 252.24 244.361C251.519 244.748 250.715 244.956 249.897 244.969C248.771 244.969 247.646 244.969 246.546 244.969C253.726 248.292 260.577 252.283 267.01 256.889C268.954 258.271 269.696 259.908 269.057 261.366C268.919 261.69 268.717 261.982 268.461 262.224C268.206 262.466 267.904 262.653 267.573 262.773C266.214 263.116 264.777 262.953 263.531 262.312L257.827 259.754C258.384 260.144 258.831 260.672 259.123 261.286C259.414 261.901 259.541 262.581 259.489 263.259C259.408 263.639 259.242 263.995 259.002 264.301C258.763 264.607 258.457 264.854 258.108 265.024C257.375 265.276 256.598 265.371 255.826 265.3C255.054 265.229 254.306 264.996 253.631 264.615C252.199 263.924 250.792 263.182 249.36 262.415C249.368 263.109 249.123 263.782 248.669 264.308C248.328 264.706 247.91 265.029 247.439 265.258C246.968 265.487 246.455 265.616 245.932 265.638C244.493 265.588 243.099 265.126 241.916 264.308L239.946 263.157C240.173 263.627 240.29 264.143 240.29 264.666C240.29 265.188 240.173 265.704 239.946 266.175C239.771 266.591 239.513 266.967 239.188 267.279C238.862 267.592 238.476 267.834 238.053 267.991C237.543 268.172 237.007 268.267 236.467 268.273Z" fill="#231F20"/>
<path d="M206.358 140.626C206.358 140.626 218.535 190.278 229.381 225.604L206.358 140.626Z" fill="white"/>
<path d="M229.483 226.755C229.237 226.755 228.996 226.675 228.798 226.528C228.6 226.38 228.455 226.173 228.384 225.937C217.537 191.019 205.361 141.521 205.208 140.907C205.169 140.756 205.162 140.599 205.185 140.444C205.208 140.29 205.262 140.142 205.343 140.009C205.424 139.876 205.53 139.76 205.656 139.668C205.782 139.576 205.926 139.51 206.077 139.475C206.379 139.405 206.696 139.458 206.959 139.621C207.223 139.783 207.411 140.043 207.484 140.344C207.612 140.83 219.788 190.38 230.507 225.246C230.595 225.541 230.564 225.859 230.421 226.132C230.277 226.405 230.033 226.61 229.739 226.704C229.657 226.734 229.571 226.751 229.483 226.755Z" fill="#231F20"/>
<path d="M352.398 285.514L351.758 292.472L195.282 315.341L196.842 308.051L352.398 285.514Z" fill="white"/>
<path d="M195.282 316.62C195.105 316.618 194.93 316.581 194.768 316.511C194.605 316.441 194.458 316.339 194.336 316.211C194.195 316.063 194.093 315.883 194.04 315.687C193.986 315.49 193.982 315.284 194.029 315.085L195.589 307.769C195.654 307.517 195.789 307.29 195.98 307.113C196.17 306.936 196.408 306.817 196.663 306.772L352.219 284.261C352.407 284.236 352.599 284.254 352.78 284.311C352.961 284.368 353.128 284.465 353.268 284.593C353.407 284.729 353.516 284.892 353.586 285.073C353.657 285.254 353.688 285.448 353.677 285.642L353.037 292.574C353.012 292.859 352.893 293.126 352.698 293.335C352.504 293.543 352.245 293.681 351.963 293.726L195.461 316.748L195.282 316.62ZM197.84 309.176L196.842 313.806L350.505 291.347L350.889 287.023L197.84 309.176Z" fill="#231F20"/>
<path d="M352.398 285.514C352.398 285.514 316.764 254.971 315.588 255.252C314.411 255.533 154.43 274.719 154.43 274.719L196.919 307.974L352.398 285.514Z" fill="white"/>
<path d="M196.842 309.329C196.561 309.33 196.288 309.231 196.074 309.048L153.56 275.793C153.36 275.637 153.212 275.425 153.133 275.184C153.054 274.944 153.049 274.685 153.117 274.441C153.186 274.197 153.325 273.979 153.518 273.815C153.71 273.65 153.948 273.546 154.199 273.517C155.785 273.338 312.799 254.51 315.357 254.075C316.073 253.922 317.122 253.641 353.241 284.619C353.428 284.779 353.566 284.989 353.638 285.225C353.711 285.46 353.715 285.711 353.651 285.949C353.578 286.184 353.442 286.395 353.257 286.558C353.072 286.721 352.845 286.828 352.602 286.87L197.072 309.381L196.842 309.329ZM157.576 275.614L197.2 306.695L349.43 284.67C336.64 273.798 318.17 258.194 315.408 256.531C307.069 257.708 189.091 271.828 157.576 275.614Z" fill="#231F20"/>
<path d="M195.282 315.341L153.713 281.651L154.353 274.719L196.842 308.051L195.282 315.341Z" fill="white"/>
<path d="M195.282 316.62C194.986 316.62 194.698 316.521 194.464 316.339L152.921 282.649C152.759 282.517 152.631 282.348 152.547 282.157C152.462 281.966 152.424 281.758 152.435 281.549L153.074 274.591C153.101 274.364 153.187 274.148 153.324 273.965C153.46 273.782 153.643 273.637 153.853 273.547C154.062 273.456 154.292 273.422 154.52 273.448C154.747 273.475 154.963 273.56 155.147 273.696L197.636 306.951C197.823 307.101 197.965 307.3 198.046 307.526C198.127 307.751 198.145 307.995 198.096 308.23L196.536 315.546C196.486 315.759 196.382 315.955 196.234 316.116C196.086 316.278 195.899 316.398 195.692 316.467C195.566 316.544 195.427 316.596 195.282 316.62ZM155.044 281.089L194.464 312.962L195.436 308.486L155.402 277.149L155.044 281.089Z" fill="#231F20"/>
<path d="M352.398 285.514L382.455 184.752L217.512 212.865L196.843 308.051L352.398 285.514Z" fill="white"/>
<path d="M196.842 309.33C196.669 309.327 196.498 309.29 196.34 309.219C196.182 309.149 196.039 309.047 195.921 308.92C195.782 308.767 195.679 308.583 195.621 308.383C195.563 308.184 195.552 307.974 195.589 307.769L216.258 212.609C216.307 212.359 216.431 212.129 216.614 211.951C216.796 211.772 217.029 211.654 217.281 211.612L382.25 183.473C382.464 183.432 382.685 183.447 382.891 183.516C383.097 183.586 383.281 183.708 383.426 183.871C383.57 184.034 383.67 184.231 383.715 184.444C383.76 184.657 383.749 184.878 383.683 185.085L353.626 285.872C353.547 286.102 353.408 286.306 353.224 286.463C353.039 286.621 352.816 286.726 352.577 286.768L197.047 309.278L196.842 309.33ZM218.586 213.991L198.505 306.516L351.4 284.363L380.639 186.364L218.586 213.991Z" fill="#231F20"/>
<path d="M440.831 134.256C440.519 134.258 440.218 134.143 439.987 133.935C439.755 133.727 439.609 133.44 439.577 133.131C438.708 124.663 445.026 114.252 445.307 113.817C445.394 113.672 445.509 113.546 445.645 113.445C445.781 113.345 445.935 113.272 446.099 113.232C446.263 113.191 446.434 113.184 446.601 113.21C446.768 113.236 446.928 113.294 447.072 113.382C447.356 113.566 447.557 113.853 447.633 114.182C447.71 114.512 447.655 114.858 447.482 115.147C447.482 115.147 441.342 125.38 442.11 132.849C442.127 133.017 442.112 133.187 442.063 133.349C442.015 133.511 441.935 133.662 441.828 133.793C441.721 133.924 441.589 134.032 441.439 134.111C441.29 134.191 441.127 134.24 440.959 134.256H440.831Z" fill="#231F20"/>
<path d="M545.428 268.784C545.184 268.78 544.945 268.709 544.738 268.58L516.164 250.213C515.876 250.03 515.672 249.739 515.598 249.406C515.523 249.073 515.585 248.723 515.768 248.435C515.951 248.147 516.241 247.943 516.575 247.869C516.908 247.794 517.257 247.855 517.546 248.038L546.119 266.405C546.405 266.594 546.606 266.887 546.678 267.222C546.75 267.557 546.687 267.907 546.503 268.196C546.382 268.371 546.223 268.516 546.036 268.618C545.849 268.721 545.641 268.777 545.428 268.784Z" fill="#D1D3D4"/>
<path d="M555.763 264.18C555.52 264.187 555.281 264.125 555.072 264.001L527.931 246.453C527.646 246.266 527.447 245.974 527.378 245.64C527.308 245.307 527.374 244.96 527.56 244.675C527.747 244.39 528.039 244.191 528.372 244.121C528.706 244.052 529.053 244.117 529.338 244.304L556.454 261.724C556.74 261.912 556.941 262.206 557.012 262.541C557.084 262.876 557.021 263.226 556.837 263.515C556.727 263.706 556.572 263.867 556.384 263.983C556.197 264.099 555.983 264.167 555.763 264.18Z" fill="#D1D3D4"/>
<path d="M565.714 260.778C565.47 260.769 565.232 260.699 565.023 260.573L537.575 242.974C537.29 242.787 537.091 242.495 537.022 242.161C536.952 241.828 537.018 241.481 537.204 241.196C537.391 240.911 537.683 240.712 538.017 240.642C538.35 240.573 538.697 240.638 538.982 240.825L566.328 258.424C566.612 258.608 566.813 258.897 566.885 259.227C566.957 259.558 566.894 259.904 566.712 260.189C566.607 260.362 566.461 260.506 566.287 260.608C566.113 260.711 565.916 260.769 565.714 260.778Z" fill="#D1D3D4"/>
<path d="M578.223 257.401C577.997 257.405 577.774 257.343 577.583 257.222L548.14 239.878C547.977 239.805 547.831 239.697 547.712 239.564C547.593 239.43 547.503 239.273 547.449 239.103C547.394 238.932 547.376 238.752 547.395 238.574C547.415 238.396 547.471 238.225 547.561 238.07C547.651 237.915 547.772 237.781 547.917 237.676C548.062 237.571 548.228 237.498 548.403 237.461C548.578 237.424 548.759 237.425 548.934 237.462C549.109 237.499 549.274 237.573 549.419 237.678L578.862 255.022C579.102 255.164 579.289 255.381 579.394 255.64C579.5 255.899 579.517 256.184 579.445 256.454C579.372 256.724 579.214 256.962 578.993 257.133C578.772 257.304 578.502 257.398 578.223 257.401Z" fill="#D1D3D4"/>
<path d="M587.15 254.357C586.916 254.362 586.685 254.3 586.485 254.178L557.042 236.834C556.754 236.654 556.548 236.37 556.467 236.04C556.385 235.71 556.436 235.362 556.607 235.069C556.689 234.922 556.8 234.794 556.933 234.691C557.067 234.589 557.22 234.515 557.383 234.475C557.546 234.434 557.715 234.427 557.881 234.454C558.047 234.482 558.205 234.543 558.347 234.634L587.79 251.978C588.03 252.12 588.217 252.337 588.322 252.596C588.427 252.855 588.445 253.14 588.373 253.41C588.3 253.68 588.141 253.918 587.921 254.089C587.7 254.26 587.43 254.354 587.15 254.357Z" fill="#D1D3D4"/>
</svg>
